<?xml version="1.0" standalone="no"?>
<!DOCTYPE svg PUBLIC "-//W3C//DTD SVG 20010904//EN"
 "http://www.w3.org/TR/2001/REC-SVG-20010904/DTD/svg10.dtd">
<svg version="1.0" xmlns="http://www.w3.org/2000/svg"
 width="300.000000pt" height="111.000000pt" viewBox="0 0 300.000000 111.000000"
 preserveAspectRatio="xMidYMid meet">
<metadata>
Created by potrace 1.10, written by Peter Selinger 2001-2011
</metadata>
<g transform="translate(0.000000,111.000000) scale(0.100000,-0.100000)"
fill="#000000" stroke="none">
<path d="M674 880 c-60 -24 -104 -135 -133 -331 l-18 -124 -12 45 c-7 25 -25
92 -41 150 -16 58 -35 133 -41 168 -10 46 -17 62 -30 62 -27 0 -35 -20 -48
-125 -28 -216 -93 -345 -176 -345 -14 0 -30 9 -37 20 -7 11 -16 20 -20 20 -15
0 -8 -27 13 -54 29 -37 77 -36 122 4 60 52 116 214 117 334 0 27 3 46 7 43 3
-4 17 -49 30 -99 26 -106 79 -276 93 -297 6 -11 14 -12 30 -5 20 9 22 19 26
91 7 174 64 363 118 398 26 18 76 14 76 -5 0 -6 5 -10 10 -10 19 0 10 39 -12
54 -25 18 -42 19 -74 6z"/>
<path d="M1111 831 c-24 -24 -43 -85 -76 -245 -28 -131 -57 -190 -108 -214
-24 -12 -32 -11 -53 3 -33 22 -47 60 -41 118 5 58 35 102 68 102 19 0 25 -6
27 -27 4 -32 14 -35 36 -12 21 20 20 37 -2 57 -63 57 -182 -47 -182 -160 0
-31 -7 -49 -25 -70 -24 -27 -25 -28 -40 -9 -18 24 -19 79 -1 169 13 70 9 83
-23 72 -15 -4 -21 -22 -30 -81 -17 -118 -12 -163 23 -186 32 -22 96 5 96 40 0
18 5 15 38 -18 57 -56 138 -35 182 48 l19 37 1 -45 c0 -53 11 -73 36 -68 14 2
21 19 30 71 14 72 47 143 77 161 25 16 37 -7 26 -53 -24 -104 2 -181 62 -181
22 0 34 8 47 29 l18 30 28 -30 c21 -22 37 -29 66 -29 42 0 94 35 105 70 4 13
15 20 30 20 13 0 27 4 30 10 3 5 14 14 23 19 15 8 17 3 19 -31 3 -81 78 -116
130 -60 17 18 27 23 30 14 9 -25 35 -42 63 -42 30 0 60 31 75 80 8 24 9 24 18
-10 17 -66 65 -91 103 -53 22 23 54 92 54 121 0 31 11 28 64 -21 50 -47 54
-58 30 -82 -22 -22 -57 -15 -69 13 -11 25 -28 24 -33 -2 -6 -28 18 -46 60 -46
30 0 46 7 69 29 44 45 39 71 -26 128 -44 37 -55 53 -53 73 3 21 9 25 41 28 35
3 38 1 43 -27 7 -34 14 -37 32 -19 18 18 15 43 -8 63 -39 35 -150 -5 -150 -54
0 -34 -44 -161 -62 -181 -16 -17 -23 -19 -34 -9 -16 13 -19 130 -5 192 8 35 7
39 -16 48 -94 36 -193 -35 -206 -146 -2 -22 -9 -50 -16 -62 -10 -20 -40 -43
-56 -43 -14 0 -35 74 -35 125 0 48 3 57 23 64 78 31 127 177 88 269 -14 33
-29 39 -61 22 -23 -12 -77 -173 -86 -257 -8 -66 -26 -108 -53 -123 -34 -17
-37 -12 -33 53 4 56 1 65 -22 90 -71 76 -154 -26 -96 -120 11 -18 31 -35 45
-39 30 -8 32 -23 5 -52 -69 -74 -144 58 -94 164 22 45 12 53 -22 18 -33 -37
-44 -65 -44 -117 0 -30 -7 -51 -25 -72 -24 -29 -25 -29 -40 -11 -17 23 -19 91
-4 155 8 36 7 47 -7 62 -42 46 -113 1 -141 -89 -22 -73 -37 -91 -29 -34 17
122 16 117 52 137 20 10 46 38 60 60 57 97 3 234 -65 166z m53 -60 c12 -41 -7
-105 -42 -139 -36 -37 -39 -17 -11 89 24 93 37 105 53 50z m586 -49 c0 -30 -7
-69 -16 -87 -16 -35 -64 -85 -64 -68 0 13 36 187 46 222 7 23 8 23 21 6 7 -11
13 -43 13 -73z m-275 -142 c11 -13 20 -41 23 -76 l5 -56 -27 17 c-47 31 -70
97 -44 123 16 16 22 15 43 -8z m465 -3 c0 -27 -31 -129 -50 -167 -25 -49 -56
-54 -66 -12 -3 15 -8 33 -10 40 -6 19 15 103 32 130 11 17 24 22 54 22 26 0
40 -5 40 -13z"/>
<path d="M2659 831 c-40 -31 -70 -106 -89 -219 -19 -110 -30 -161 -37 -175 -2
-4 -14 0 -26 8 -70 49 -180 -33 -119 -88 24 -22 76 -22 111 -1 28 16 28 16
107 -46 128 -102 161 -109 227 -51 37 33 32 51 -7 26 -38 -25 -77 -13 -168 52
-104 75 -103 74 -80 120 26 50 38 97 56 216 16 109 34 147 71 147 66 0 61
-155 -7 -227 -33 -35 -14 -38 25 -4 46 41 81 122 74 174 -10 77 -82 112 -138
68z m-179 -421 c24 -20 25 -21 6 -35 -25 -19 -51 -19 -70 1 -45 45 12 75 64
34z"/>
<path d="M693 734 c-8 -22 10 -49 32 -49 22 0 40 27 32 49 -8 21 -56 21 -64 0z"/>
</g>
</svg>
